<svg width="100" height="32" viewBox="0 0 100 32" xmlns="http://www.w3.org/2000/svg">
  <defs>
    <linearGradient id="phoneGradient" x1="0%" y1="0%" x2="100%" y2="0%">
      <stop offset="0%" style="stop-color:#3B82F6;stop-opacity:1" />
      <stop offset="50%" style="stop-color:#10B981;stop-opacity:1" />
      <stop offset="100%" style="stop-color:#06B6D4;stop-opacity:1" />
    </linearGradient>
  </defs>
  
  <!-- Minimal background - just a small dark area -->
  <rect width="100" height="32" fill="#0F172A" rx="4"/>
  
  <!-- Text: "port" -->
  <text x="8" y="22" font-family="Arial, sans-serif" font-size="14" font-weight="600" fill="#3B82F6">port</text>
  
  <!-- Phone receiver with globe texture - smaller -->
  <g transform="translate(35, 6)">
    <!-- Phone receiver path - more compact -->
    <path d="M6 3 Q6 2 8 2 Q10 2 12 3 Q14 4 16 5 Q18 6 20 7 Q22 8 20 9 Q18 10 16 11 Q14 12 12 13 Q10 14 8 14 Q6 14 6 13 Q6 12 8 11 Q10 10 12 9 Q14 8 16 7 Q18 6 16 5 Q14 4 12 3 Q10 2 8 2 Q6 2 6 3 Z" 
          fill="url(#phoneGradient)" 
          stroke="#1E293B" 
          stroke-width="0.3"/>
    
    <!-- Globe texture overlay - simplified -->
    <circle cx="10" cy="8" r="5" fill="#10B981" opacity="0.4"/>
    <circle cx="10" cy="8" r="4" fill="none" stroke="#10B981" stroke-width="0.3" opacity="0.6"/>
    <path d="M6 8 Q10 6 14 8 Q10 10 6 8" fill="none" stroke="#10B981" stroke-width="0.2" opacity="0.7"/>
    <path d="M10 4 Q8 8 10 12 Q12 8 10 4" fill="none" stroke="#10B981" stroke-width="0.2" opacity="0.7"/>
  </g>
  
  <!-- Text: "this" -->
  <text x="50" y="22" font-family="Arial, sans-serif" font-size="14" font-weight="600" fill="#06B6D4">this</text>
</svg>
